Coordinates
version=1
nRows=26
nColumns=24
inDegrees=yes

Units are S.I. units (second, meters, Newtons, ...)
Angles are in degrees.

endheader
time	pelvis_tilt	pelvis_list	pelvis_rotation	pelvis_tx	pelvis_ty	pelvis_tz	hip_flexion_r	hip_adduction_r	hip_rotation_r	knee_angle_r	ankle_angle_r	subtalar_angle_r	mtp_angle_r	hip_flexion_l	hip_adduction_l	hip_rotation_l	knee_angle_l	ankle_angle_l	subtalar_angle_l	mtp_angle_l	lumbar_extension	lumbar_bending	lumbar_rotation
     12.70500000	    -11.26021645	      3.32504943	     -8.97821639	     -1.21578902	     -0.03338261	     -0.29243874	     -3.75133948	     -0.79233851	      9.43392562	    -19.81770795	      6.41644574	     10.64418739	     23.24115222	     34.46827176	     -0.88982128	     -7.42404326	     -9.22872290	     -2.76587740	     -1.99495199	      8.34380269	      9.23824635	     -1.02488470	     15.14418892
     12.71000000	    -11.32345908	      3.44388322	     -8.84344097	     -1.20890329	     -0.03412459	     -0.29332181	     -3.66044427	     -1.09216677	      8.82814104	    -20.50221039	      5.58293430	     11.41897210	     24.73505008	     34.56342935	     -0.64823864	     -7.20434430	     -9.86659258	     -3.69575851	     -2.78110692	      8.66197146	      9.43038910	     -1.20488604	     14.97668691
     12.71500000	    -11.42849317	      3.77111071	     -8.72157586	     -1.20178220	     -0.03479025	     -0.29403811	     -3.47830261	     -1.60117534	      8.30674996	    -21.29778226	      5.03550779	     12.37677117	     25.25385285	     34.73321818	     -0.24911769	     -7.38100937	    -10.57351032	     -4.31279798	     -2.93471806	      8.66098187	      9.75488968	     -1.61959211	     14.86143621
     12.72000000	    -11.52737698	      4.01013766	     -8.51073750	     -1.19490953	     -0.03532485	     -0.29501309	     -3.27655097	     -2.05096387	      7.55324578	    -22.05697704	      4.10688511	     13.34203581	     26.68149627	     34.90503453	      0.17467913	     -6.94356337	    -11.28012939	     -5.20243985	     -3.66941218	      8.66280985	     10.00226223	     -1.94311855	     14.67507461
     12.72500000	    -11.62774825	      4.35043980	     -8.28095407	     -1.18802630	     -0.03575877	     -0.29590294	     -3.01853328	     -2.60851155	      6.79435238	    -22.90691079	      3.21276618	     14.38208920	     27.83793636	     35.11247054	      0.69403339	     -6.64031570	    -12.05788588	     -5.85423007	     -3.96022527	      8.52355431	     10.26682151	     -2.39886477	     14.46818856
     12.73000000	    -11.72504380	      4.71361584	     -7.99892237	     -1.18116869	     -0.03607487	     -0.29682842	     -2.73297073	     -3.20003607	      5.97152539	    -23.80420147	      2.23255526	     15.46109147	     28.87712296	     35.32701816	      1.28599774	     -6.16587502	    -12.87035850	     -6.42043102	     -4.20197145	      8.24122353	     10.52410107	     -2.89746836	     14.22944827
     12.73500000	    -11.81996184	      5.09693675	     -7.66984371	     -1.17433080	     -0.03627978	     -0.29778699	     -2.41721712	     -3.82821929	      5.07193140	    -24.74563258	      1.11282544	     16.56121322	     29.92709577	     35.54324780	      1.94445756	     -5.55584815	    -13.70626182	     -6.89850626	     -4.37364776	      7.82609785	     10.77022438	     -3.43278223	     13.96146678
     12.74000000	    -11.87892781	      5.45516528	     -7.31991598	     -1.16755459	     -0.03638114	     -0.29872585	     -2.09623421	     -4.45120489	      4.10539280	    -25.78004048	     -0.01923678	     17.78636406	     30.61833767	     35.73009075	      2.59879517	     -4.91009988	    -14.57861759	     -7.22372569	     -4.30264848	      7.56604368	     10.95504041	     -3.95719162	     13.69920352
     12.74500000	    -11.98043316	      5.88588502	     -6.90217847	     -1.16062867	     -0.03638416	     -0.29974658	     -1.74118885	     -5.15113881	      3.14412223	    -26.74819667	     -1.58023839	     18.69956723	     31.91650550	     35.91063110	      3.40979030	     -3.99430976	    -15.38124855	     -7.58668346	     -4.57548857	      6.68346623	     11.21527054	     -4.57259724	     13.35547223
     12.75000000	    -12.03653392	      6.27295730	     -6.47625597	     -1.15373556	     -0.03629606	     -0.30073464	     -1.40080903	     -5.82948609	      2.13986829	    -27.79237929	     -3.18621476	     19.70691507	     32.91328897	     36.03893263	      4.18411950	     -3.15028893	    -16.20602922	     -7.74019068	     -4.54440261	      5.92615210	     11.40523948	     -5.15311199	     13.03190380
     12.75500000	    -12.05443099	      6.63356695	     -6.04481813	     -1.14678421	     -0.03611733	     -0.30158642	     -1.08772210	     -6.47575693	      1.19350190	    -28.91097265	     -4.75821490	     20.71258290	     33.14270640	     36.10538965	      4.91261537	     -2.49818188	    -16.99585258	     -7.87109781	     -4.26402872	      5.74590142	     11.55641481	     -5.73064425	     12.68226689
     12.76000000	    -12.10218800	      6.93742371	     -5.59025196	     -1.13992775	     -0.03594636	     -0.30270224	     -0.69424302	     -7.10530445	      0.15315587	    -30.07459293	     -6.60816283	     21.60474443	     33.81146920	     36.13422997	      5.68249960	     -1.39027034	    -17.70129076	     -8.01620527	     -4.58985483	      4.94910977	     11.70267305	     -6.21306322	     12.36985900
     12.76500000	    -12.11213261	      7.29811727	     -5.17405978	     -1.13287734	     -0.03562374	     -0.30363957	     -0.34816740	     -7.77179136	     -0.71244280	    -31.18687932	     -8.76750059	     22.09226867	     34.57886322	     36.06816855	      6.47043406	     -0.53214222	    -18.34983194	     -7.92607115	     -4.72116713	      3.72829912	     11.85664061	     -6.77099670	     12.07770810
     12.77000000	    -12.11355534	      7.52668544	     -4.72106857	     -1.12595349	     -0.03534573	     -0.30460767	      0.02108519	     -8.31252663	     -1.61973924	    -32.42383899	    -10.71960030	     22.69437007	     34.47869855	     35.97967269	      7.12835862	      0.22676000	    -18.96641527	     -7.89359414	     -4.75274050	      3.39761122	     11.94775458	     -7.19868456	     11.73777977
     12.77500000	    -12.12124553	      7.81928984	     -4.34517246	     -1.11892049	     -0.03501382	     -0.30554908	      0.44228659	     -8.92143635	     -2.37360916	    -33.68377492	    -12.81325203	     23.01706873	     34.43507131	     35.80251552	      7.82986200	      1.00538225	    -19.44299218	     -7.77794028	     -5.07423531	      2.51472868	     12.08937560	     -7.66270852	     11.50541681
     12.78000000	    -12.12338164	      7.95635895	     -3.91847928	     -1.11202521	     -0.03467841	     -0.30649485	      0.86567877	     -9.34055681	     -3.10734628	    -34.98142510	    -14.89735124	     23.07033517	     33.91903343	     35.60234636	      8.38251485	      1.68231558	    -19.88708613	     -7.71930777	     -5.32268067	      2.35006138	     12.17224366	     -7.98374574	     11.15127830
     12.78500000	    -12.11462997	      8.16097838	     -3.61668354	     -1.10516828	     -0.03435981	     -0.30733376	      1.37452756	     -9.84563485	     -3.73189941	    -36.37759893	    -16.88944029	     22.91670940	     33.35591249	     35.33166173	      8.91493275	      2.16228427	    -20.20686532	     -7.59990561	     -5.59286294	      2.29076884	     12.26649746	     -8.33278480	     11.00527871
     12.79000000	    -12.16055831	      8.21427104	     -3.17818520	     -1.09843019	     -0.03404310	     -0.30851637	      1.91434701	    -10.17256100	     -4.33230168	    -37.75439286	    -18.86171981	     22.64782281	     32.60524457	     35.06536949	      9.41990515	      2.98141775	    -20.47188615	     -7.56256434	     -6.17889269	      2.06327606	     12.36633622	     -8.52719311	     10.64660472
     12.79500000	    -12.16484095	      8.38876790	     -2.89734754	     -1.09169984	     -0.03373461	     -0.30942300	      2.51546568	    -10.63439214	     -4.82478127	    -39.22557493	    -20.67854946	     22.11113548	     31.92912801	     34.71020251	      9.90084161	      3.39339622	    -20.61771938	     -7.35401742	     -6.48722326	      2.07021406	     12.45872236	     -8.82381881	     10.50822327
     12.80000000	    -12.21671563	      8.41883161	     -2.53230667	     -1.08522711	     -0.03340782	     -0.31055864	      3.18173603	    -10.90991655	     -5.25125902	    -40.70279157	    -22.43127687	     21.38984164	     31.06278446	     34.38832495	     10.30930151	      4.01083836	    -20.74762902	     -7.23940066	     -6.98254434	      2.04694431	     12.53415109	     -8.96729584	     10.23565218
     12.80500000	    -12.24511733	      8.54700968	     -2.26514365	     -1.07874471	     -0.03308542	     -0.31156214	      3.89916292	    -11.30300022	     -5.61997731	    -42.24384639	    -23.96715291	     20.53931675	     30.34708101	     33.97981348	     10.72603649	      4.40568923	    -20.73862118	     -7.00391330	     -7.31435635	      2.14437645	     12.61957454	     -9.19089832	     10.07657291
     12.81000000	    -12.29510540	      8.60957309	     -1.97489458	     -1.07248773	     -0.03272722	     -0.31262561	      4.67658443	    -11.59270882	     -5.89903331	    -43.79449668	    -25.39356841	     19.54084184	     29.58598850	     33.59615992	     11.08792491	      4.83250828	    -20.72843244	     -6.82303277	     -7.69477784	      2.27256598	     12.68060844	     -9.34693588	      9.88443845
     12.81500000	    -12.38007945	      8.64257101	     -1.70043623	     -1.06629410	     -0.03234451	     -0.31369278	      5.52803340	    -11.83583471	     -6.11460031	    -45.35481265	    -26.61707554	     18.51789736	     28.77682720	     33.20633266	     11.39769222	      5.24782144	    -20.63581325	     -6.64524592	     -8.07084450	      2.51028866	     12.78220996	     -9.45532798	      9.66242270
     12.82000000	    -12.39413834	      8.80083832	     -1.47424316	     -1.06015197	     -0.03191488	     -0.31468114	      6.35023425	    -12.22448548	     -6.29751841	    -46.93741546	    -27.58297527	     17.48240966	     28.29230380	     32.73058964	     11.78207989	      5.47372816	    -20.49739289	     -6.38537380	     -8.28486404	      2.71431022	     12.81158308	     -9.69401714	      9.55538713
     12.82500000	    -12.43603270	      8.87512213	     -1.26521280	     -1.05428413	     -0.03136366	     -0.31561985	      7.25330745	    -12.47854807	     -6.37350260	    -48.50695954	    -28.42769250	     16.38492061	     27.81338554	     32.27187602	     12.06202354	      5.74328913	    -20.31703291	     -6.22329467	     -8.49851819	      2.92106634	     12.82369304	     -9.83664641	      9.38467450
     12.83000000	    -12.47920487	      8.96288316	     -1.07165388	     -1.04838460	     -0.03078008	     -0.31652552	      8.16903170	    -12.73441402	     -6.40737747	    -50.04926686	    -29.01509619	     15.34198335	     27.43654892	     31.78531278	     12.33483693	      5.98617325	    -20.09131142	     -6.00478585	     -8.66735426	      3.18824239	     12.85904403	     -9.98784617	      9.22284830
